<?xml version="1.0" standalone="no"?>
<!DOCTYPE svg PUBLIC "-//W3C//DTD SVG 20010904//EN"
 "http://www.w3.org/TR/2001/REC-SVG-20010904/DTD/svg10.dtd">
<svg version="1.0" xmlns="http://www.w3.org/2000/svg"
 width="512.000000pt" height="512.000000pt" viewBox="0 0 512.000000 512.000000"
 preserveAspectRatio="xMidYMid meet">
<metadata>
Created by potrace 1.11, written by Peter Selinger 2001-2013
</metadata>
<g transform="translate(0.000000,512.000000) scale(0.100000,-0.100000)"
fill="#000000" stroke="none">
<path d="M0 2560 l0 -2560 2560 0 2560 0 0 2560 0 2560 -2560 0 -2560 0 0
-2560z m2762 2081 c147 -26 232 -52 343 -108 266 -133 495 -374 604 -638 45
-106 81 -261 91 -388 6 -62 10 -353 10 -649 l0 -536 98 -52 c53 -29 101 -55
105 -60 5 -4 30 5 56 22 96 59 215 48 300 -28 89 -80 109 -195 53 -304 -28
-55 -28 -59 -15 -91 31 -71 54 -193 51 -261 -3 -58 -8 -72 -33 -97 -22 -24
-31 -28 -42 -19 -7 6 -17 7 -21 3 -4 -4 -1 -10 6 -12 21 -8 13 -19 -35 -50
-76 -48 -87 -52 -131 -46 -40 5 -42 4 -42 -19 0 -22 -7 -27 -61 -42 -56 -16
-62 -16 -79 -1 -12 11 -20 13 -25 5 -4 -6 -1 -9 7 -8 7 2 13 -4 13 -12 0 -9
-11 -16 -27 -18 -16 -2 -28 1 -28 7 0 6 -9 11 -20 11 -22 0 -27 -16 -7 -23 6
-2 4 -3 -6 -1 -9 1 -25 -5 -34 -14 -12 -12 -35 -16 -92 -16 -52 1 -65 -1 -41
-6 l35 -6 -37 -8 c-43 -9 -70 -10 -118 -3 -19 2 -27 2 -17 0 9 -2 17 -8 17
-13 0 -10 -106 -24 -120 -15 -5 3 -24 -1 -42 -9 -19 -9 -73 -18 -123 -21 -49
-2 -121 -9 -160 -15 -71 -11 -151 -15 -540 -26 -254 -7 -683 14 -910 45 -168
23 -283 41 -325 51 -25 6 -74 17 -110 26 -36 8 -78 18 -95 21 -16 3 -34 9 -40
13 -5 4 -28 11 -50 15 -37 6 -85 24 -127 46 -10 5 -25 9 -34 9 -22 0 -182 85
-216 115 -15 13 -37 42 -49 65 -18 35 -21 52 -16 108 6 75 29 169 53 223 16
36 15 37 -12 79 -37 55 -45 149 -19 216 38 99 131 164 235 164 54 0 126 -25
160 -54 13 -11 29 -6 107 38 l91 51 5 640 c3 547 6 651 20 715 57 255 159 442
347 631 144 146 281 234 460 296 205 72 420 90 632 54z m1441 -3338 c-7 -2
-19 -2 -25 0 -7 3 -2 5 12 5 14 0 19 -2 13 -5z m-2948 -229 c444 -99 753 -129
1325 -128 552 0 886 32 1264 121 81 19 150 32 153 29 9 -9 -75 -112 -134 -166
-116 -106 -311 -220 -493 -287 -256 -96 -511 -134 -855 -128 -441 8 -791 105
-1085 301 -166 111 -347 307 -258 278 13 -4 50 -13 83 -20z"/>
<path d="M2411 4489 c-135 -16 -284 -66 -402 -135 -91 -53 -133 -86 -230 -184
-161 -160 -257 -341 -300 -565 -13 -71 -25 -1215 -12 -1215 4 0 62 17 128 38
66 21 156 47 200 57 44 11 81 20 83 20 1 1 -25 31 -59 66 -78 83 -132 162
-181 265 -58 126 -79 217 -87 384 -5 127 -3 158 16 245 24 115 54 196 100 278
19 34 30 64 26 74 -6 15 -7 14 -14 -3 -7 -17 -8 -17 -8 5 -1 17 3 22 14 17 8
-3 15 -1 15 3 0 5 -7 11 -15 15 -8 3 -15 13 -15 22 0 14 3 14 15 4 13 -11 18
-10 29 6 8 10 18 16 22 12 4 -5 0 -16 -8 -25 -9 -10 -19 -29 -22 -43 l-7 -25
20 25 c12 14 29 33 38 43 17 18 17 19 -1 33 -17 12 -18 14 -3 14 9 0 17 -5 17
-12 0 -6 30 18 68 55 69 69 194 167 211 167 5 0 11 3 13 8 6 15 120 65 203 89
104 30 124 33 270 32 171 0 194 -2 253 -18 24 -7 53 -10 65 -7 12 3 16 3 9 0
-14 -6 139 -76 170 -77 9 -1 15 -4 13 -7 -2 -3 14 -17 36 -30 21 -14 39 -27
39 -31 0 -10 49 -29 62 -24 17 6 45 -12 35 -22 -5 -4 -12 -1 -17 7 -5 8 -12
11 -16 8 -6 -7 19 -38 31 -38 3 0 34 -29 67 -65 33 -35 65 -62 71 -58 6 3 7 1
3 -6 -4 -6 6 -28 22 -49 17 -21 42 -60 57 -87 31 -57 95 -210 100 -240 29
-155 32 -294 10 -430 -33 -203 -111 -357 -272 -535 -13 -14 -22 -29 -20 -34 2
-5 61 -24 132 -42 72 -18 157 -42 189 -53 33 -12 61 -21 63 -21 1 0 3 255 3
566 0 531 -1 572 -20 666 -21 99 -61 210 -108 298 -121 224 -367 432 -602 509
-147 49 -350 69 -499 50z m202 -86 c-29 -2 -77 -2 -105 0 -29 2 -6 3 52 3 58
0 81 -1 53 -3z m-213 -18 c0 -9 -6 -12 -15 -9 -8 4 -15 10 -15 15 0 5 7 9 15
9 8 0 15 -7 15 -15z m398 -5 c22 -1 24 -3 11 -10 -22 -13 -89 -1 -89 16 0 10
6 11 26 4 14 -6 37 -10 52 -10z m-500 -26 c12 -4 22 -10 22 -15 0 -13 -23 -10
-44 6 -21 16 -15 18 22 9z m527 -14 c3 -5 -1 -10 -9 -10 -9 0 -16 5 -16 10 0
6 4 10 9 10 6 0 13 -4 16 -10z m75 0 c0 -5 -4 -10 -10 -10 -5 0 -10 5 -10 10
0 6 5 10 10 10 6 0 10 -4 10 -10z m-735 -12 c-11 -6 -24 -17 -30 -24 -24 -32
-155 -85 -155 -64 0 5 11 10 25 10 14 0 25 5 25 10 0 6 4 10 9 10 6 0 36 16
68 35 32 19 63 35 68 35 6 0 1 -6 -10 -12z m102 -4 c-3 -3 -12 -4 -19 -1 -8 3
-5 6 6 6 11 1 17 -2 13 -5z m-37 -8 c0 -3 -4 -8 -10 -11 -5 -3 -10 -1 -10 4 0
6 5 11 10 11 6 0 10 -2 10 -4z m368 -11 c3 -3 -22 -5 -56 -5 -34 0 -62 -4 -62
-9 0 -5 -20 -8 -44 -7 -55 1 -49 15 7 18 39 1 39 2 8 5 -35 5 -94 -14 -86 -27
3 -4 -6 -10 -20 -12 -14 -3 -25 -1 -25 3 0 5 7 9 15 9 8 0 15 5 15 10 0 6 -7
10 -15 10 -8 0 -15 4 -15 9 0 10 269 6 278 -4z m39 9 c-3 -3 -12 -4 -19 -1 -8
3 -5 6 6 6 11 1 17 -2 13 -5z m100 0 c-3 -3 -12 -4 -19 -1 -8 3 -5 6 6 6 11 1
17 -2 13 -5z m278 -32 c-9 -9 -35 8 -35 23 0 13 3 12 20 -2 11 -9 17 -19 15
-21z m-222 21 c-7 -2 -21 -2 -30 0 -10 3 -4 5 12 5 17 0 24 -2 18 -5z m-483
-12 c0 -11 -48 -24 -60 -16 -21 13 -8 25 25 25 19 0 35 -4 35 -9z m355 -1
c-16 -4 -39 -8 -50 -8 -16 0 -15 2 5 8 14 4 36 8 50 8 22 0 22 -1 -5 -8z m103
-17 c-10 -2 -28 -2 -40 0 -13 2 -5 4 17 4 22 1 32 -1 23 -4z m316 -18 c19 -15
19 -15 -5 -13 -14 1 -26 8 -26 15 0 17 7 16 31 -2z m-944 -15 c13 -9 13 -10 0
-9 -8 0 -24 4 -35 9 l-20 9 20 0 c11 0 27 -4 35 -9z m900 0 c0 -5 -5 -10 -11
-10 -5 0 -7 5 -4 10 3 6 8 10 11 10 2 0 4 -4 4 -10z m-65 -10 c3 -5 4 -10 1
-10 -2 0 -12 -3 -22 -7 -11 -4 -15 -3 -10 5 3 6 -3 12 -16 15 -17 3 -15 5 9 6
17 0 35 -3 38 -9z m-865 -4 c0 -2 -7 -6 -15 -10 -8 -3 -15 -1 -15 4 0 6 7 10
15 10 8 0 15 -2 15 -4z m67 -12 c-16 -9 -31 -13 -34 -10 -3 3 5 10 18 15 37
15 47 12 16 -5z m974 -10 c7 -8 26 -22 42 -30 16 -9 26 -18 23 -21 -6 -7 -96
49 -96 60 0 12 17 8 31 -9z m-116 -26 c5 -5 2 -8 -7 -8 -9 0 -20 5 -23 10 -3
6 -15 10 -26 10 -11 0 -18 4 -14 10 6 9 49 -4 70 -22z m-1100 12 c3 -5 1 -10
-4 -10 -6 0 -11 5 -11 10 0 6 2 10 4 10 3 0 8 -4 11 -10z m178 3 c-7 -2 -19
-2 -25 0 -7 3 -2 5 12 5 14 0 19 -2 13 -5z m-136 -29 c-3 -3 -12 -4 -19 -1 -8
3 -5 6 6 6 11 1 17 -2 13 -5z m1183 -10 c0 -2 -7 -4 -15 -4 -8 0 -15 4 -15 10
0 5 7 7 15 4 8 -4 15 -8 15 -10z m-1260 -4 c0 -5 -4 -10 -10 -10 -5 0 -10 5
-10 10 0 6 5 10 10 10 6 0 10 -4 10 -10z m1193 -2 c4 -10 8 -10 15 1 7 10 10
7 10 -12 0 -25 -1 -25 -24 -10 -24 15 -32 33 -15 33 5 0 12 -6 14 -12z m-1073
-6 c0 -4 -18 -7 -39 -7 -22 0 -37 3 -35 7 3 5 21 8 40 8 19 0 34 -3 34 -8z
m1240 -24 c0 -13 -23 -5 -28 10 -2 7 2 10 12 6 9 -3 16 -11 16 -16z m-1364
-80 c-21 -21 -41 -36 -45 -33 -3 3 -6 21 -6 40 -1 25 2 32 13 27 11 -4 13 -1
7 8 -5 8 -3 11 6 8 8 -3 23 7 34 21 l20 25 5 -28 c4 -23 -2 -36 -34 -68z
m1312 73 c3 -8 -1 -12 -9 -9 -7 2 -15 10 -17 17 -3 8 1 12 9 9 7 -2 15 -10 17
-17z m-1218 2 c-8 -3 -21 -10 -27 -16 -9 -7 -13 -5 -13 7 0 11 8 16 28 15 15
0 21 -3 12 -6z m-155 -22 c-3 -6 -11 -11 -17 -11 -6 0 -6 6 2 15 14 17 26 13
15 -4z m1332 -6 c0 -8 -4 -12 -9 -9 -5 3 -6 10 -3 15 9 13 12 11 12 -6z m64
-8 c-13 -13 -26 -3 -16 12 3 6 11 8 17 5 6 -4 6 -10 -1 -17z m79 -17 c-1 -12
-3 -12 -14 3 -13 17 -15 17 -30 1 -9 -9 -19 -14 -22 -11 -3 3 3 14 13 24 14
15 22 17 36 9 9 -6 17 -18 17 -26z m-1490 -30 c5 0 6 -7 3 -17 -4 -10 -2 -14
4 -10 7 4 10 1 9 -7 -3 -18 -37 -58 -44 -51 -3 3 3 14 13 25 16 18 16 20 2 20
-10 0 -17 -4 -17 -10 0 -5 -4 -10 -10 -10 -18 0 -11 18 10 25 23 7 27 25 5 25
-18 0 -19 12 -2 29 10 10 13 9 15 -3 2 -9 7 -16 12 -16z m1470 -1 c0 -6 -4 -7
-10 -4 -5 3 -10 11 -10 16 0 6 5 7 10 4 6 -3 10 -11 10 -16z m39 -6 c-10 -11
-10 -14 -1 -9 6 4 12 2 12 -3 0 -6 -7 -11 -15 -11 -8 0 -15 -4 -15 -9 0 -5 7
-14 15 -21 8 -7 15 -18 15 -24 0 -6 -12 1 -25 17 -13 15 -29 26 -36 25 -6 -2
-14 3 -16 10 -3 7 5 12 20 12 14 0 27 7 31 15 3 8 11 15 17 15 8 0 7 -5 -2
-17z m39 -38 c-3 -3 -9 2 -12 12 -6 14 -5 15 5 6 7 -7 10 -15 7 -18z m67 -94
c-3 -2 -11 2 -20 9 -9 7 -19 9 -23 5 -4 -4 2 -12 12 -19 37 -21 57 -47 54 -68
-4 -27 -23 -34 -32 -13 -3 9 -2 13 4 10 11 -7 12 -3 4 19 -3 8 -12 12 -20 9
-8 -3 -14 1 -14 11 0 9 -4 16 -10 16 -11 0 -43 70 -35 78 3 3 5 1 5 -5 0 -6 8
-14 18 -18 14 -5 15 -4 5 6 -7 7 -13 20 -13 29 1 9 14 0 35 -25 18 -22 32 -41
30 -44z m-1711 26 c-3 -9 -12 -17 -20 -17 -19 0 -18 16 2 24 9 3 12 11 8 18
-5 10 -4 10 5 2 6 -6 9 -18 5 -27z m-101 -163 c-13 -20 -14 -29 -5 -32 14 -4
16 -22 3 -22 -18 0 -20 31 -3 77 12 36 17 43 20 26 2 -12 -5 -34 -15 -49z m35
-3 c-14 -22 -34 -30 -24 -8 3 6 9 20 12 30 4 12 10 15 16 9 6 -6 5 -17 -4 -31z
m1820 -31 c-2 -7 -10 1 -17 16 -12 27 -11 28 4 12 10 -9 16 -21 13 -28z m32
-2 c0 -19 -2 -20 -10 -8 -13 19 -13 30 0 30 6 0 10 -10 10 -22z m-1899 -41
c-1 -4 -1 -14 -1 -23 0 -8 -4 -12 -10 -9 -6 4 -10 -5 -10 -19 0 -14 -4 -26
-10 -26 -5 0 -10 -10 -10 -22 0 -12 -3 -18 -6 -15 -4 4 -1 28 7 54 7 26 14 51
15 56 1 4 2 10 3 13 2 8 23 0 22 -9z m1912 -5 c3 7 6 3 6 -9 1 -14 -5 -23 -14
-23 -8 0 -15 4 -15 9 0 5 -3 18 -6 28 -5 17 -5 17 9 0 11 -14 16 -15 20 -5z
m23 -97 c4 -14 4 -29 0 -32 -3 -4 -6 3 -6 13 0 11 -5 25 -12 32 -9 9 -9 12 0
12 6 0 14 -11 18 -25z"/>
<path d="M1900 4085 c0 -8 -5 -15 -11 -15 -14 0 -39 -25 -39 -39 0 -6 5 -11
10 -11 6 0 10 6 10 13 0 8 11 20 25 27 25 13 35 40 15 40 -5 0 -10 -7 -10 -15z"/>
<path d="M1741 3074 c0 -11 3 -14 6 -6 3 7 2 16 -1 19 -3 4 -6 -2 -5 -13z"/>
<path d="M2223 3039 c-92 -45 -109 -168 -33 -240 60 -58 131 -62 198 -12 118
88 48 273 -103 273 -11 0 -39 -9 -62 -21z"/>
<path d="M2796 3050 c-84 -25 -127 -137 -82 -216 27 -49 74 -76 135 -77 115
-4 187 121 129 224 -35 63 -109 91 -182 69z"/>
<path d="M1883 2920 c0 -30 2 -43 4 -27 2 15 2 39 0 55 -2 15 -4 2 -4 -28z"/>
<path d="M3261 2834 c0 -11 3 -14 6 -6 3 7 2 16 -1 19 -3 4 -6 -2 -5 -13z"/>
<path d="M1881 2774 c0 -11 3 -14 6 -6 3 7 2 16 -1 19 -3 4 -6 -2 -5 -13z"/>
<path d="M2359 2674 c-30 -37 61 -134 140 -149 110 -21 201 3 256 68 37 43 43
68 21 86 -18 15 -37 6 -61 -31 -28 -44 -79 -68 -143 -68 -65 0 -112 19 -140
56 -47 62 -51 64 -73 38z"/>
<path d="M2122 2574 c-21 -17 -23 -26 -20 -92 l3 -74 98 -2 97 -1 0 76 c0 93
-8 102 -94 107 -49 3 -66 0 -84 -14z"/>
<path d="M2868 2574 c-27 -14 -28 -18 -28 -92 l0 -77 100 0 100 0 0 77 c0 68
-3 79 -22 92 -29 20 -114 20 -150 0z"/>
<path d="M1747 2355 c-103 -30 -203 -81 -229 -118 -45 -63 0 -167 93 -214 121
-63 356 -118 602 -143 187 -19 689 -8 847 19 293 50 523 141 566 222 20 39 18
92 -5 121 -29 37 -124 83 -231 112 -52 14 -98 26 -102 26 -5 0 -8 -36 -8 -81
0 -87 -5 -102 -58 -167 -47 -59 -173 -122 -259 -129 -50 -5 -70 -2 -106 16
-25 12 -53 33 -61 46 -16 24 -46 34 -46 16 0 -4 -27 -22 -59 -40 -47 -25 -71
-31 -117 -31 -63 0 -132 25 -171 62 l-22 21 -37 -33 c-83 -72 -154 -78 -282
-23 -145 62 -201 138 -202 271 0 84 5 82 -113 47z"/>
<path d="M730 1712 c0 -14 23 -32 41 -32 15 0 16 -8 12 -60 -4 -41 -2 -60 6
-60 6 0 11 11 11 23 0 15 9 28 23 35 l22 11 -22 0 c-19 1 -23 7 -23 31 0 19
-5 30 -14 30 -7 0 -19 7 -26 15 -13 16 -30 20 -30 7z"/>
<path d="M4364 1695 c-12 -9 -14 -14 -6 -15 7 0 20 7 28 15 20 19 4 20 -22 0z"/>
<path d="M4411 1694 c0 -11 3 -14 6 -6 3 7 2 16 -1 19 -3 4 -6 -2 -5 -13z"/>
<path d="M708 1646 c-2 -21 0 -39 4 -42 4 -3 8 -13 7 -22 0 -14 -2 -13 -9 3
-7 15 -9 9 -9 -25 0 -25 4 -52 9 -60 8 -11 9 -7 4 14 -4 17 -3 27 2 23 6 -3
10 2 11 11 1 9 4 44 7 77 3 33 3 54 0 46 -5 -10 -8 -10 -14 -1 -5 7 -9 -2 -12
-24z"/>
<path d="M823 1657 c2 -7 14 -14 26 -15 28 -4 20 13 -9 21 -14 3 -20 1 -17 -6z"/>
<path d="M4280 1650 c0 -5 7 -7 15 -4 8 4 15 8 15 10 0 2 -7 4 -15 4 -8 0 -15
-4 -15 -10z"/>
<path d="M4340 1656 c0 -19 22 -56 30 -51 17 10 11 34 -10 45 -11 6 -20 9 -20
6z"/>
<path d="M4420 1633 c0 -18 5 -33 10 -33 13 0 13 -37 1 -45 -5 -3 -11 5 -13
17 l-3 23 -13 -23 c-14 -24 -27 -110 -15 -99 3 4 12 -1 19 -11 12 -16 13 -15
8 4 -4 14 0 23 11 28 9 3 13 10 10 16 -3 5 -1 10 6 10 14 0 7 99 -10 127 -9
15 -10 13 -11 -14z"/>
<path d="M4220 1630 c0 -5 9 -10 21 -10 11 0 17 5 14 10 -3 6 -13 10 -21 10
-8 0 -14 -4 -14 -10z"/>
<path d="M4168 1613 c6 -2 18 -2 25 0 6 3 1 5 -13 5 -14 0 -19 -2 -12 -5z"/>
<path d="M4320 1580 c0 -18 4 -29 10 -25 6 3 10 15 10 25 0 10 -4 22 -10 25
-6 4 -10 -7 -10 -25z"/>
<path d="M1040 1585 c0 -7 18 -15 41 -19 39 -6 68 -1 38 7 -8 2 -29 9 -46 15
-26 8 -33 7 -33 -3z"/>
<path d="M4066 1592 c-4 -7 -20 -12 -37 -12 -16 0 -29 -5 -29 -11 0 -8 12 -9
38 -4 43 8 45 10 40 26 -3 10 -6 10 -12 1z"/>
<path d="M1151 1556 c11 -9 69 -14 69 -6 0 6 -16 10 -37 10 -20 0 -34 -2 -32
-4z"/>
<path d="M3890 1550 c-12 -9 -7 -10 22 -5 23 3 45 1 57 -7 19 -12 41 -5 28 8
-12 12 -92 15 -107 4z"/>
<path d="M1040 1540 c0 -5 12 -10 26 -10 14 0 23 4 19 10 -3 6 -15 10 -26 10
-10 0 -19 -4 -19 -10z"/>
<path d="M1120 1540 c0 -5 7 -10 16 -10 8 0 12 5 9 10 -3 6 -10 10 -16 10 -5
0 -9 -4 -9 -10z"/>
<path d="M1280 1536 c0 -13 12 -16 58 -15 l57 1 -47 8 c-26 5 -52 11 -57 15
-6 3 -11 -1 -11 -9z"/>
<path d="M3818 1533 c12 -2 30 -2 40 0 9 3 -1 5 -23 4 -22 0 -30 -2 -17 -4z"/>
<path d="M3665 1510 c3 -5 8 -10 11 -10 2 0 4 5 4 10 0 6 -5 10 -11 10 -5 0
-7 -4 -4 -10z"/>
<path d="M746 1484 c-8 -31 4 -47 30 -42 17 3 17 5 3 18 -9 8 -14 22 -11 32 2
10 0 18 -6 18 -5 0 -13 -12 -16 -26z"/>
<path d="M1533 1493 c9 -2 23 -2 30 0 6 3 -1 5 -18 5 -16 0 -22 -2 -12 -5z"/>
<path d="M3575 1489 c55 -11 77 -11 70 1 -3 6 -30 9 -58 9 l-52 -1 40 -9z"/>
<path d="M1560 1480 l-45 -6 39 -8 c24 -6 41 -5 45 2 3 5 15 12 26 15 l20 5
-20 -1 c-11 0 -40 -3 -65 -7z"/>
<path d="M3413 1480 c-104 -9 -102 -20 2 -15 48 2 93 9 98 14 12 12 15 12
-100 1z"/>
<path d="M1700 1470 c38 -12 109 -12 90 0 -8 5 -37 9 -65 9 -40 -1 -45 -3 -25
-9z"/>
<path d="M1853 1463 c9 -2 23 -2 30 0 6 3 -1 5 -18 5 -16 0 -22 -2 -12 -5z"/>
<path d="M3258 1463 c7 -3 16 -2 19 1 4 3 -2 6 -13 5 -11 0 -14 -3 -6 -6z"/>
<path d="M3528 1463 c7 -3 16 -2 19 1 4 3 -2 6 -13 5 -11 0 -14 -3 -6 -6z"/>
<path d="M4320 1460 c0 -5 5 -10 10 -10 6 0 10 5 10 10 0 6 -4 10 -10 10 -5 0
-10 -4 -10 -10z"/>
<path d="M2045 1450 c28 -5 66 -8 85 -8 28 1 25 2 -15 8 -27 5 -66 8 -85 8
-28 -1 -25 -2 15 -8z"/>
<path d="M2955 1450 c-86 -7 -84 -7 37 -6 71 1 128 4 128 9 0 7 -22 7 -165 -3z"/>
<path d="M3141 1456 c2 -2 22 -6 44 -9 27 -4 35 -3 25 3 -14 9 -79 15 -69 6z"/>
<path d="M1533 1443 c9 -2 23 -2 30 0 6 3 -1 5 -18 5 -16 0 -22 -2 -12 -5z"/>
<path d="M1873 1443 c9 -2 25 -2 35 0 9 3 1 5 -18 5 -19 0 -27 -2 -17 -5z"/>
<path d="M2253 1443 c9 -2 23 -2 30 0 6 3 -1 5 -18 5 -16 0 -22 -2 -12 -5z"/>
<path d="M3408 1443 c6 -2 18 -2 25 0 6 3 1 5 -13 5 -14 0 -19 -2 -12 -5z"/>
<path d="M3573 1443 c15 -2 37 -2 50 0 12 2 0 4 -28 4 -27 0 -38 -2 -22 -4z"/>
<path d="M810 1432 c0 -14 11 -21 26 -15 21 8 17 23 -6 23 -11 0 -20 -4 -20
-8z"/>
<path d="M776 1421 c-3 -5 1 -11 9 -15 9 -3 15 0 15 9 0 16 -16 20 -24 6z"/>
<path d="M935 1410 c3 -5 11 -10 16 -10 6 0 7 5 4 10 -3 6 -11 10 -16 10 -6 0
-7 -4 -4 -10z"/>
<path d="M4284 1408 c-3 -4 -2 -12 1 -18 3 -5 -4 -11 -17 -12 -31 -2 -40 -4
-61 -13 -17 -7 -17 -8 0 -21 24 -18 25 -18 53 9 14 12 26 21 27 19 6 -5 63 29
63 38 0 11 -59 10 -66 -2z"/>
<path d="M883 1403 c-23 -4 -33 -23 -13 -23 6 0 10 -7 10 -16 0 -13 3 -14 15
-4 12 10 16 8 25 -14 11 -31 30 -34 30 -6 0 11 -7 20 -15 20 -14 0 -19 11 -16
38 1 6 -2 11 -6 11 -4 -1 -18 -4 -30 -6z"/>
<path d="M4160 1396 c0 -8 8 -14 19 -13 11 0 17 6 14 14 -7 18 -33 17 -33 -1z"/>
<path d="M973 1343 c-7 -2 -13 -8 -13 -13 0 -10 38 -1 46 11 6 10 -13 11 -33
2z"/>
<path d="M1020 1311 c0 -6 5 -13 10 -16 6 -3 10 1 10 9 0 9 -4 16 -10 16 -5 0
-10 -4 -10 -9z"/>
<path d="M4032 1277 c7 -8 21 -12 32 -9 20 5 20 5 0 13 -33 13 -47 11 -32 -4z"/>
<path d="M1248 1273 c6 -2 18 -2 25 0 6 3 1 5 -13 5 -14 0 -19 -2 -12 -5z"/>
<path d="M3928 1273 c6 -2 18 -2 25 0 6 3 1 5 -13 5 -14 0 -19 -2 -12 -5z"/>
<path d="M1200 1251 c0 -9 71 -23 79 -16 7 8 -2 12 -41 18 -21 3 -38 2 -38 -2z"/>
<path d="M1408 1193 c6 -2 18 -2 25 0 6 3 1 5 -13 5 -14 0 -19 -2 -12 -5z"/>
<path d="M1648 1193 c6 -2 18 -2 25 0 6 3 1 5 -13 5 -14 0 -19 -2 -12 -5z"/>
<path d="M1520 1168 c0 -5 18 -8 40 -8 22 0 40 2 40 4 0 2 -18 6 -40 8 -22 2
-40 0 -40 -4z"/>
<path d="M3440 1170 c0 -13 11 -13 30 0 12 8 11 10 -7 10 -13 0 -23 -4 -23
-10z"/>
<path d="M3520 1170 c0 -6 7 -10 15 -10 8 0 15 2 15 4 0 2 -7 6 -15 10 -8 3
-15 1 -15 -4z"/>
<path d="M1908 1113 c17 -2 47 -2 65 0 17 2 3 4 -33 4 -36 0 -50 -2 -32 -4z"/>
<path d="M2071 1109 c13 -8 97 -13 88 -5 -2 2 -26 6 -53 9 -30 3 -43 1 -35 -4z"/>
<path d="M2538 1113 c34 -2 90 -2 125 0 34 2 6 3 -63 3 -69 0 -97 -1 -62 -3z"/>
<path d="M3018 1113 c7 -3 16 -2 19 1 4 3 -2 6 -13 5 -11 0 -14 -3 -6 -6z"/>
<path d="M3105 1111 c-11 -5 10 -6 50 -3 39 2 72 6 74 8 8 8 -105 2 -124 -5z"/>
<path d="M2258 1093 c12 -2 32 -2 45 0 12 2 2 4 -23 4 -25 0 -35 -2 -22 -4z"/>
<path d="M2408 1093 c7 -3 16 -2 19 1 4 3 -2 6 -13 5 -11 0 -14 -3 -6 -6z"/>
<path d="M2538 1093 c34 -2 90 -2 125 0 34 2 6 3 -63 3 -69 0 -97 -1 -62 -3z"/>
<path d="M2818 1093 c12 -2 32 -2 45 0 12 2 2 4 -23 4 -25 0 -35 -2 -22 -4z"/>
</g>
</svg>
